<svg width="20" height="20" xmlns="http://www.w3.org/2000/svg"><g fill="' + fillColor + '" fill-rule="evenodd"><path d="M16.338 7.35l-.89-.891-3.133 2.374a.815.815 0 01-1.15-.165.819.819 0 010-.986l2.368-3.142-.867-.871a.387.387 0 01.269-.664L16.612 3a.397.397 0 01.388.389V7.08a.387.387 0 01-.662.27M3.662 12.65l.89.89 3.133-2.374a.817.817 0 011.15.166.819.819 0 010 .985l-2.37 3.143.87.871c.248.25.071.664-.27.664L3.388 17A.397.397 0 013 16.611V12.92c0-.342.418-.514.662-.27M3.662 7.35l.89-.891 3.133 2.374a.815.815 0 001.15-.165.819.819 0 000-.986L6.465 4.54l.87-.871a.387.387 0 00-.27-.664L3.388 3A.397.397 0 003 3.389V7.08c0 .341.418.514.662.27M16.338 12.65l-.89.89-3.133-2.374a.817.817 0 00-1.15.166.819.819 0 000 .985l2.368 3.143-.867.871a.387.387 0 00.269.664l3.677.005a.397.397 0 00.388-.389V12.92a.387.387 0 00-.662-.27"/></g></svg>