<svg width="20" height="20" xmlns="http://www.w3.org/2000/svg"><g fill="' + fillColor + '" fill-rule="evenodd"><path d="M12.662 3.65l.89.891 3.133-2.374a.815.815 0 011.15.165.819.819 0 010 .986L15.467 6.46l.867.871c.25.25.072.664-.269.664L12.388 8A.397.397 0 0112 7.611V3.92c0-.341.418-.514.662-.27M7.338 16.35l-.89-.89-3.133 2.374a.817.817 0 01-1.15-.166.819.819 0 010-.985l2.37-3.143-.87-.871a.387.387 0 01.27-.664L7.612 12a.397.397 0 01.388.389v3.692a.387.387 0 01-.662.27M7.338 3.65l-.89.891-3.133-2.374a.815.815 0 00-1.15.165.819.819 0 000 .986l2.37 3.142-.87.871a.387.387 0 00.27.664L7.612 8A.397.397 0 008 7.611V3.92a.387.387 0 00-.662-.27M12.662 16.35l.89-.89 3.133 2.374a.817.817 0 001.15-.166.819.819 0 000-.985l-2.368-3.143.867-.871a.387.387 0 00-.269-.664L12.388 12a.397.397 0 00-.388.389v3.692c0 .342.418.514.662.27"/></g></svg>